<svg width="135" height="52" viewBox="0 0 135 52" fill="none" xmlns="http://www.w3.org/2000/svg">
<path d="M122.556 11.0675C124.282 12.3727 125.509 13.6116 126.239 14.7841C126.992 15.9344 127.368 17.1843 127.368 18.5338C127.368 20.0823 126.992 21.5645 126.239 22.9803C125.487 24.3962 124.37 25.458 122.888 26.166C122.025 26.5642 121.14 26.8296 120.233 26.9624C119.348 27.0951 118.353 27.1615 117.247 27.1615C117.136 27.1615 117.026 26.907 116.915 26.3982C116.804 25.8673 116.749 25.1262 116.749 24.1749C116.749 22.6706 116.882 21.6309 117.147 21.0557C117.391 20.4805 117.645 20.1929 117.91 20.1929C119.282 20.1929 120.366 20.0823 121.162 19.8611C121.981 19.6399 122.39 19.3634 122.39 19.0315C122.39 18.6112 121.97 17.9475 121.129 17.0405C120.289 16.1335 118.829 14.9721 116.749 13.5563L117.91 7.58326L134.004 0.614746L135 5.92409L122.556 11.0675Z" fill="#A72F3B"/>
<path d="M117.24 27.1615C114.807 27.1615 112.893 26.5088 111.499 25.2036C110.106 23.8763 109.364 21.8189 109.276 19.0315L108.612 1.1125L114.253 0.614746C114.231 2.73848 114.198 5.54801 114.154 9.04333C114.132 12.5165 114.11 14.6292 114.088 15.3814C114.088 17.0848 114.375 18.3126 114.95 19.0647C115.548 19.8169 116.532 20.1929 117.904 20.1929L117.24 27.1615Z" fill="black"/>
<path d="M104.781 11.2329C105.223 14.33 105.444 16.8741 105.444 18.8651C105.444 21.4313 104.902 23.4555 103.818 24.9376C102.757 26.4198 101.307 27.1609 99.4713 27.1609C98.0334 27.1609 96.8277 26.9397 95.8544 26.4973C94.881 26.0327 94.2062 25.4465 93.8302 24.7385C93.432 25.4907 92.8125 26.088 91.9719 26.5305C91.1313 26.9508 90.2021 27.1609 89.1845 27.1609C87.9899 27.1609 86.9944 26.9397 86.198 26.4973C85.4016 26.0327 84.8817 25.4022 84.6384 24.6058C84.1074 25.5128 83.3221 26.1654 82.2824 26.5636C81.2647 26.9618 79.86 27.1609 78.0681 27.1609C77.9575 27.1609 77.8468 26.9065 77.7362 26.3977C77.6256 25.8668 77.5703 25.1257 77.5703 24.1744C77.5703 22.6701 77.703 21.6304 77.9685 21.0552C78.2119 20.48 78.4663 20.1924 78.7317 20.1924C80.1918 20.1924 81.2758 19.9933 81.9837 19.5951C82.6916 19.1969 83.0456 18.5111 83.0456 17.5378V15.2149L87.3594 14.8831V17.2059C87.3594 19.1969 88.1337 20.1924 89.6822 20.1924C90.4344 20.1924 91.0096 19.9601 91.4078 19.4956C91.806 19.031 92.0051 18.3784 92.0051 17.5378V15.5468L96.3189 15.2149V17.2059C96.3189 18.2014 96.5955 18.9536 97.1485 19.4624C97.7237 19.9491 98.5533 20.1924 99.6373 20.1924C100.19 20.1924 100.467 19.9712 100.467 19.5288C100.467 18.9978 100.378 18.1351 100.201 16.9405C100.024 15.7237 99.7811 14.319 99.4713 12.7262L104.781 11.2329Z" fill="black"/>
<path d="M78.0667 27.1612C76.5624 27.1612 75.2904 26.9068 74.2506 26.398C73.233 25.8671 72.5583 25.1481 72.2264 24.2411C71.7176 25.1481 70.8438 25.8671 69.6049 26.398C68.3661 26.9068 66.8175 27.1612 64.9593 27.1612H64.2956C64.185 27.1612 64.0744 26.9068 63.9638 26.398C63.8532 25.8671 63.7979 25.126 63.7979 24.1747C63.7979 22.6704 63.9306 21.6306 64.1961 21.0555C64.4394 20.4803 64.6938 20.1927 64.9593 20.1927H65.6229C67.5697 20.1927 68.9081 19.883 69.6381 19.2636C70.3903 18.6441 70.7664 17.7371 70.7664 16.5425V14.2197L75.0802 13.8878V16.3766C75.0802 17.7482 75.3678 18.7326 75.943 19.3299C76.5403 19.9051 77.4694 20.1927 78.7304 20.1927L78.0667 27.1612ZM70.4345 6.75342H70.7664H76.2416V11.2332H70.7664H70.4345H64.9593V6.75342H70.4345Z" fill="black"/>
<path d="M62.8752 27.1622C62.2116 29.8832 60.6409 31.9295 58.1632 33.3011C56.6589 34.1197 54.8117 34.7833 52.6216 35.2921C50.4315 35.8231 47.7989 36.2102 44.7239 36.4536C44.4363 35.0156 44.0492 32.9693 43.5625 30.3146C48.8276 29.9607 52.6437 29.4629 55.0108 28.8214C57.4 28.1798 58.7162 27.4055 58.9596 26.4985C57.3225 26.7198 55.6191 26.8304 53.8494 26.8304C52.1238 26.8304 50.8075 26.3658 49.9005 25.4367C48.9935 24.5075 48.54 23.2023 48.54 21.521C48.54 19.7291 48.8497 18.0257 49.4691 16.4108C50.1107 14.7737 50.9845 13.4464 52.0906 12.4288C53.1967 11.4112 54.4467 10.9023 55.8404 10.9023C57.7429 10.9023 59.3467 11.7098 60.6519 13.3247C61.9572 14.9175 62.7867 17.2072 63.1407 20.1937H64.9658L64.3021 27.1622H62.8752ZM52.6879 19.0323C52.6879 19.4747 52.8428 19.8066 53.1525 20.0278C53.4843 20.249 54.0485 20.3596 54.8449 20.3596L58.4287 20.2932C57.8314 17.904 56.6921 16.7094 55.0108 16.7094C54.3913 16.7094 53.8494 16.9638 53.3848 17.4727C52.9202 17.9815 52.6879 18.5013 52.6879 19.0323Z" fill="black"/>
<path d="M39.7402 10.4033C40.979 10.4033 41.9745 10.7462 42.7267 11.432C43.4788 12.0957 44.0319 13.1354 44.3858 14.5512C44.5628 15.237 44.7177 16.0887 44.8504 17.1064C44.9831 18.1019 45.0495 18.9646 45.0495 19.6947C45.0495 21.0441 44.7951 22.3162 44.2863 23.5108C43.7775 24.7054 43.1027 25.6677 42.2621 26.3977C41.4436 27.1277 40.6029 27.4928 39.7402 27.4928C38.3022 27.4928 36.8643 27.1609 35.4263 26.4973C33.9884 25.8336 32.9929 25.0925 32.4398 24.274C31.6434 25.3358 30.7917 26.088 29.8847 26.5304C28.9777 26.9508 28.0043 27.1609 26.9645 27.1609C26.8539 27.1609 26.7433 26.9065 26.6327 26.3977C26.5221 25.8668 26.4668 25.1257 26.4668 24.1744C26.4668 22.6701 26.5995 21.6304 26.865 21.0552C27.1083 20.48 27.3627 20.1924 27.6282 20.1924C28.314 20.1924 28.8671 20.115 29.2874 19.9601C29.7298 19.7832 30.128 19.4845 30.482 19.0642C30.8581 18.6217 31.2895 17.947 31.7761 17.04C32.7495 15.2702 33.6123 13.9208 34.3644 12.9916C35.1166 12.0404 35.9019 11.3767 36.7205 11.0006C37.5611 10.6024 38.5677 10.4033 39.7402 10.4033ZM35.3268 18.6328C35.5701 19.0531 36.2338 19.4734 37.3178 19.8938C38.4018 20.3141 39.3751 20.5243 40.2379 20.5243C40.5476 20.5243 40.7025 20.3583 40.7025 20.0265C40.7025 19.6504 40.6472 19.1859 40.5366 18.6328C40.4481 18.0576 40.3485 17.582 40.2379 17.2059C39.9946 16.4316 39.5521 16.0445 38.9106 16.0445C38.3354 16.0445 37.8598 16.1109 37.4837 16.2436C37.1076 16.3763 36.7536 16.6307 36.4218 17.0068C36.1121 17.3608 35.7471 17.9028 35.3268 18.6328Z" fill="black"/>
<path d="M25.6411 27.1609C25.6411 28.3112 25.3645 29.4063 24.8115 30.446C24.2805 31.4858 23.5063 32.437 22.4886 33.2998C21.3162 34.3174 19.6238 35.147 17.4116 35.7886C15.1993 36.4522 12.9097 36.7841 10.5426 36.7841C7.04729 36.7841 4.42581 36.0651 2.67815 34.6271C0.952612 33.2113 0.0898438 31.0544 0.0898438 28.1564C0.0898438 25.5017 0.753512 22.0175 2.08085 17.7036L6.22877 18.865C5.80845 20.4578 5.5098 21.752 5.33282 22.7475C5.15584 23.7209 5.06735 24.5836 5.06735 25.3358C5.06735 26.7959 5.58722 27.902 6.62697 28.6541C7.68884 29.4284 9.38119 29.8155 11.704 29.8155C13.4074 29.8155 14.956 29.6828 16.3497 29.4173C17.7434 29.174 18.8385 28.8643 19.6349 28.4882C20.4313 28.1121 20.8295 27.7803 20.8295 27.4927C20.8295 27.3157 20.6193 27.1609 20.199 27.0281C19.7787 26.8733 19.0044 26.7074 17.8761 26.5304C16.7479 26.3534 15.0777 26.1211 12.8654 25.8335L14.0269 20.0265C16.4603 20.1371 20.2764 20.1924 25.4751 20.1924H27.6321L26.9684 27.1609H25.6411Z" fill="black"/>
<path d="M123.394 35.8965C124.135 35.8965 124.704 36.2796 125.1 37.046C125.504 37.8123 125.706 38.8271 125.706 40.0904C125.706 40.6377 125.592 41.1515 125.365 41.6315C125.138 42.1031 124.818 42.4273 124.405 42.6042C124.093 42.7389 123.66 42.8358 123.104 42.8947C122.556 42.9537 121.959 42.9831 121.31 42.9831H120.388C120.354 42.9831 120.321 42.9326 120.287 42.8315C120.253 42.7305 120.236 42.5915 120.236 42.4147C120.236 42.1283 120.27 41.9094 120.337 41.7578C120.396 41.5978 120.464 41.5178 120.539 41.5178H121.613C123.028 41.5178 123.971 41.4167 124.443 41.2146C124.611 41.1388 124.695 40.9493 124.695 40.6462C124.695 40.4188 124.691 40.2546 124.683 40.1535C124.077 40.3051 123.487 40.3809 122.914 40.3809C122.359 40.3809 121.937 40.2504 121.651 39.9893C121.373 39.7198 121.234 39.3577 121.234 38.9029C121.234 38.3976 121.327 37.9134 121.512 37.4502C121.697 36.987 121.954 36.6123 122.283 36.326C122.611 36.0396 122.982 35.8965 123.394 35.8965ZM122.232 38.3976C122.232 38.6082 122.308 38.7766 122.46 38.9029C122.62 39.0208 122.843 39.0798 123.129 39.0798C123.626 39.0798 124.102 39.0377 124.557 38.9535C124.447 38.364 124.274 37.9176 124.039 37.6144C123.803 37.3113 123.521 37.1597 123.192 37.1597C122.923 37.1597 122.695 37.2818 122.51 37.526C122.325 37.7702 122.232 38.0608 122.232 38.3976ZM122.523 34.5827V33.1553H124.064V34.5827H122.523Z" fill="black"/>
<path d="M120.387 42.9838C119.798 42.9838 119.377 42.8827 119.124 42.6806C119.099 43.3375 118.96 43.8975 118.707 44.3607C118.463 44.8323 118.05 45.2407 117.469 45.586C116.897 45.9397 116.109 46.2345 115.107 46.4703L114.627 45.1818C115.536 44.946 116.235 44.706 116.724 44.4617C117.221 44.2175 117.558 43.9733 117.734 43.7291C117.92 43.4848 118.012 43.2154 118.012 42.9206C118.012 42.4153 117.962 41.8427 117.861 41.2026C117.768 40.5542 117.642 39.9226 117.482 39.3078L118.707 38.9036C118.833 39.6868 118.956 40.2552 119.073 40.6089C119.2 40.9542 119.368 41.1942 119.579 41.3289C119.789 41.4553 120.109 41.5184 120.539 41.5184L120.387 42.9838Z" fill="black"/>
<path d="M112.609 38.208C113.114 38.208 113.544 38.3933 113.897 38.7638C114.26 39.1344 114.529 39.6144 114.706 40.2039C114.891 40.785 114.984 41.3997 114.984 42.0482C114.984 42.8398 114.853 43.4883 114.592 43.9936C114.331 44.4988 113.902 44.9241 113.304 45.2694C112.318 45.8421 110.727 46.2252 108.529 46.4189C108.445 46.0905 108.343 45.6273 108.226 45.0294C109.699 44.8947 110.853 44.7304 111.687 44.5367C112.521 44.343 113.106 44.1072 113.443 43.8293C113.788 43.5599 113.961 43.2314 113.961 42.844V42.743C113.422 42.9114 112.798 42.9956 112.091 42.9956C111.535 42.9956 111.114 42.8609 110.828 42.5914C110.541 42.3135 110.398 41.9345 110.398 41.4545C110.398 40.8902 110.491 40.3597 110.676 39.8628C110.87 39.366 111.135 38.9659 111.472 38.6628C111.809 38.3596 112.188 38.208 112.609 38.208ZM111.409 40.886C111.409 41.0966 111.485 41.265 111.636 41.3913C111.796 41.5176 112.028 41.5808 112.331 41.5808C112.828 41.5808 113.333 41.5345 113.847 41.4419C113.729 40.8524 113.548 40.3934 113.304 40.0649C113.068 39.7365 112.782 39.5723 112.445 39.5723C112.15 39.5723 111.902 39.707 111.699 39.9765C111.506 40.2376 111.409 40.5408 111.409 40.886Z" fill="black"/>
<path d="M108.316 38.2464C108.383 38.6422 108.442 39.1096 108.493 39.6486C108.543 40.1791 108.568 40.6339 108.568 41.0129C108.568 41.6108 108.421 42.0908 108.126 42.4529C107.84 42.8066 107.482 42.9835 107.053 42.9835C106.581 42.9835 106.168 42.8993 105.815 42.7308C105.469 42.5624 105.225 42.3308 105.082 42.0361C104.897 42.3392 104.657 42.575 104.362 42.7435C104.067 42.9035 103.739 42.9835 103.377 42.9835C102.972 42.9835 102.619 42.9035 102.315 42.7435C102.012 42.575 101.81 42.335 101.709 42.0234C101.507 42.3435 101.2 42.5835 100.787 42.7435C100.374 42.9035 99.8269 42.9835 99.1447 42.9835C99.1111 42.9835 99.0774 42.933 99.0437 42.8319C99.01 42.7308 98.9932 42.5919 98.9932 42.415C98.9932 42.1287 99.0268 41.9098 99.0942 41.7582C99.1532 41.5982 99.2205 41.5182 99.2963 41.5182C100.004 41.5182 100.526 41.4129 100.863 41.2023C101.2 40.9834 101.368 40.6381 101.368 40.1665V39.4338L102.442 39.3454V40.2802C102.442 40.6676 102.53 40.9708 102.707 41.1897C102.892 41.4087 103.162 41.5182 103.515 41.5182C103.836 41.5182 104.101 41.4045 104.311 41.1771C104.53 40.9497 104.64 40.676 104.64 40.356V39.5602L105.713 39.4717V40.2802C105.713 40.6592 105.836 40.9623 106.08 41.1897C106.332 41.4087 106.678 41.5182 107.116 41.5182C107.208 41.5182 107.284 41.4929 107.343 41.4424C107.402 41.3834 107.431 41.3076 107.431 41.215C107.431 40.9876 107.394 40.6171 107.318 40.1033C107.25 39.5812 107.17 39.0801 107.078 38.6001L108.316 38.2464ZM104.147 35.8084V34.5957H105.562V35.8084H104.147ZM104.791 36.3895H104.918H106.572V37.5769H104.918H104.791H103.137V36.3895H104.791Z" fill="black"/>
<path d="M92.8673 34.6591L92.741 33.8127L96.6443 32.0442L96.8338 32.84L92.8673 34.6591ZM99.1455 42.9837C98.6823 42.9837 98.2612 42.9205 97.8823 42.7942C97.5117 42.6679 97.1159 42.4447 96.6948 42.1247C96.2738 41.8047 95.76 41.3373 95.1537 40.7225C95.1032 41.1099 94.9811 41.4594 94.7874 41.771C94.5937 42.0742 94.3621 42.3058 94.0926 42.4658C93.8147 42.6258 93.4652 42.7521 93.0441 42.8447C92.623 42.9374 92.1936 42.9837 91.7556 42.9837C91.7219 42.9837 91.6883 42.9374 91.6546 42.8447C91.6209 42.7437 91.6041 42.5963 91.6041 42.4026C91.6041 42.1247 91.6377 41.9099 91.7051 41.7584C91.7641 41.5983 91.8314 41.5183 91.9072 41.5183C92.5641 41.5183 93.0989 41.4425 93.5115 41.291C93.9242 41.1394 94.1305 40.9415 94.1305 40.6972C94.1305 40.5036 94.0757 40.3014 93.9663 40.0909C93.8568 39.8804 93.6126 39.5898 93.2336 39.2193C92.8546 38.8403 92.282 38.3519 91.5156 37.7539L91.8188 36.1497L98.2739 33.1558L98.5518 34.3306L92.6399 37.0465C93.5073 37.695 94.3916 38.4192 95.2927 39.2193C96.0001 39.8509 96.5685 40.3267 96.998 40.6467C97.4275 40.9667 97.8149 41.1941 98.1602 41.3289C98.5054 41.4552 98.8844 41.5183 99.2971 41.5183L99.1455 42.9837Z" fill="black"/>
<path d="M91.7452 42.9831C90.9115 42.9831 90.2841 42.7684 89.863 42.3389C89.4504 41.901 89.2314 41.2273 89.2061 40.3177L89.0293 33.2563L90.3304 33.1553L90.3178 39.623C90.3094 40.2462 90.4315 40.7178 90.6841 41.0378C90.9452 41.3578 91.3536 41.5178 91.9094 41.5178L91.7452 42.9831Z" fill="black"/>
<path d="M84.0915 36.6921C84.9 37.3659 85.5274 37.9343 85.9737 38.3975C86.42 38.8607 86.7401 39.2775 86.9337 39.6481C87.1274 40.0186 87.2243 40.3892 87.2243 40.7597C87.2243 41.2229 87.1022 41.6271 86.858 41.9724C86.6137 42.3177 86.2853 42.583 85.8726 42.7682C85.4937 42.9535 85.0347 43.0461 84.4957 43.0461C83.881 43.0461 83.422 42.8988 83.1188 42.604C82.8156 42.3008 82.6641 41.905 82.6641 41.4166C82.6641 40.6081 83.102 39.606 83.9778 38.4101L83.3588 37.8796L84.0915 36.6921ZM83.7631 40.785C83.7631 40.9955 83.8431 41.1724 84.0031 41.3155C84.1631 41.4587 84.4031 41.5303 84.7231 41.5303C85.0937 41.5303 85.4263 41.4797 85.7211 41.3787C86.0242 41.2776 86.1758 41.1597 86.1758 41.025C86.1758 40.8144 86.0705 40.5702 85.86 40.2923C85.6579 40.006 85.2663 39.5933 84.6852 39.0544C84.382 39.4417 84.1505 39.787 83.9904 40.0902C83.8389 40.385 83.7631 40.6165 83.7631 40.785Z" fill="black"/>
<path d="M79.7703 43.5597L79.5303 33.7571L80.8314 33.656L80.7935 43.4712L79.7703 43.5597Z" fill="black"/>
<path d="M77.3542 38.6077C77.43 39.0119 77.5058 39.4835 77.5816 40.0225C77.6658 40.5614 77.7079 40.9615 77.7079 41.2225C77.7079 41.6015 77.6111 41.9763 77.4174 42.3468C77.2237 42.7089 76.9626 42.97 76.6342 43.13C76.1626 43.3658 75.4131 43.4837 74.3857 43.4837C74.352 43.4837 74.3183 43.4332 74.2846 43.3321C74.2509 43.2311 74.2341 43.0921 74.2341 42.9152C74.2341 42.6289 74.2678 42.41 74.3351 42.2584C74.3941 42.0984 74.4615 42.0184 74.5373 42.0184C75.8931 42.0184 76.571 41.871 76.571 41.5762C76.571 41.3489 76.5289 40.9699 76.4447 40.4393C76.3605 39.9004 76.251 39.4077 76.1163 38.9614L77.3542 38.6077ZM75.2447 44.8859H75.371H77.0258V46.0733H75.371H75.2447H73.5898V44.8859H75.2447Z" fill="black"/>
<path d="M74.3788 43.4837C73.2924 43.4837 72.6145 43.13 72.345 42.4226C72.1597 42.7679 71.8439 43.0331 71.3976 43.2184C70.9513 43.3953 70.3786 43.4837 69.6796 43.4837H69.427C69.3933 43.4837 69.3596 43.4332 69.3259 43.3321C69.2922 43.231 69.2754 43.0921 69.2754 42.9152C69.2754 42.6289 69.3091 42.4099 69.3764 42.2584C69.4354 42.0983 69.5028 42.0183 69.5786 42.0183H69.8312C70.5807 42.0183 71.1239 41.9004 71.4608 41.6646C71.806 41.4288 71.9787 41.0667 71.9787 40.5783V39.5551L73.0524 39.4666V40.5656C73.0524 41.0457 73.1661 41.4078 73.3935 41.652C73.6293 41.8962 74.0125 42.0183 74.543 42.0183L74.3788 43.4837ZM71.0818 38.0771V36.6497H72.6229V38.0771H71.0818Z" fill="black"/>
<path d="M69.4198 43.4844C68.3334 43.4844 67.6555 43.1307 67.386 42.4233C67.2008 42.7686 66.885 43.0338 66.4386 43.2191C65.9923 43.396 65.4196 43.4844 64.7206 43.4844H64.468C64.4343 43.4844 64.4006 43.4339 64.3669 43.3328C64.3332 43.2317 64.3164 43.0928 64.3164 42.9159C64.3164 42.6296 64.3501 42.4107 64.4175 42.2591C64.4764 42.0991 64.5438 42.0191 64.6196 42.0191H64.8722C65.6217 42.0191 66.1649 41.9012 66.5018 41.6654C66.8471 41.4296 67.0197 41.0674 67.0197 40.579V39.5558L68.0934 39.4674V40.5664C68.0934 41.0464 68.2071 41.4085 68.4345 41.6527C68.6703 41.8969 69.0535 42.0191 69.584 42.0191L69.4198 43.4844ZM66.7039 36.8904H66.8302H68.485V38.0778H66.8302H66.7039H65.0491V36.8904H66.7039Z" fill="black"/>
<path d="M64.4683 43.4843C63.8451 43.4843 63.4072 43.3706 63.1545 43.1432C63.0535 43.7074 62.8345 44.2169 62.4977 44.6717C62.1608 45.1264 61.6976 45.5096 61.1081 45.8212C60.207 46.2928 59.0196 46.6591 57.5458 46.9202L57.3058 46.1497L57.1416 45.6317C59.0533 45.2864 60.3544 44.8822 61.045 44.419C61.7439 43.9559 62.0934 43.4548 62.0934 42.9158C62.0934 42.6379 62.0429 42.1958 61.9418 41.5894C61.8408 40.9747 61.7145 40.3809 61.5629 39.8083L62.7882 39.4041C62.9145 40.1872 63.0366 40.7557 63.1545 41.1094C63.2809 41.4547 63.4493 41.6947 63.6598 41.8294C63.8704 41.9558 64.1904 42.0189 64.6199 42.0189L64.4683 43.4843Z" fill="black"/>
<path d="M58.8868 38.6082C58.9625 39.0124 59.0383 39.484 59.1141 40.023C59.1984 40.5619 59.2405 40.962 59.2405 41.223C59.2405 41.602 59.1436 41.9767 58.9499 42.3473C58.7562 42.7094 58.4952 42.9705 58.1667 43.1305C57.6951 43.3663 56.9456 43.4842 55.9182 43.4842C55.8845 43.4842 55.8508 43.4337 55.8171 43.3326C55.7834 43.2315 55.7666 43.0926 55.7666 42.9157C55.7666 42.6294 55.8003 42.4105 55.8677 42.2589C55.9266 42.0989 55.994 42.0189 56.0698 42.0189C57.4256 42.0189 58.1036 41.8715 58.1036 41.5767C58.1036 41.3493 58.0615 40.9704 57.9772 40.4398C57.893 39.9009 57.7835 39.4082 57.6488 38.9619L58.8868 38.6082ZM57.2319 37.446V36.0186H58.7731V37.446H57.2319Z" fill="black"/>
<path d="M55.911 43.4844C54.8247 43.4844 54.1467 43.1307 53.8772 42.4233C53.692 42.7686 53.3762 43.0338 52.9298 43.2191C52.4835 43.396 51.9108 43.4844 51.2118 43.4844H50.9592C50.9255 43.4844 50.8918 43.4339 50.8581 43.3328C50.8245 43.2317 50.8076 43.0928 50.8076 42.9159C50.8076 42.6296 50.8413 42.4107 50.9087 42.2591C50.9676 42.0991 51.035 42.0191 51.1108 42.0191H51.3634C52.1129 42.0191 52.6561 41.9012 52.993 41.6654C53.3383 41.4296 53.5109 41.0674 53.5109 40.579V39.5558L54.5846 39.4674V40.5664C54.5846 41.0464 54.6983 41.4085 54.9257 41.6527C55.1615 41.8969 55.5447 42.0191 56.0752 42.0191L55.911 43.4844ZM53.1951 36.8904H53.3214H54.9762V38.0778H53.3214H53.1951H51.5403V36.8904H53.1951Z" fill="black"/>
<path d="M50.3225 43.4846C50.3983 43.6109 50.4362 43.7541 50.4362 43.9141C50.4362 44.251 50.3562 44.5794 50.1962 44.8994C50.0446 45.2194 49.8046 45.51 49.4762 45.771C48.9625 46.1753 48.2593 46.5037 47.3666 46.7563C46.4823 47.0174 45.6065 47.1479 44.7391 47.1479C43.5517 47.1479 42.6632 46.9037 42.0737 46.4153C41.4842 45.9353 41.1895 45.2405 41.1895 44.331C41.1895 43.4551 41.4084 42.2761 41.8463 40.7939L42.8443 41.0719C42.5243 42.2509 42.3642 43.1562 42.3642 43.7878C42.3642 44.3773 42.5874 44.8405 43.0338 45.1773C43.4801 45.5142 44.1328 45.6826 44.9917 45.6826C45.716 45.6826 46.4108 45.5984 47.0761 45.43C47.7414 45.27 48.2803 45.0763 48.693 44.8489C49.1056 44.6215 49.312 44.4278 49.312 44.2678C49.312 44.1331 49.2235 44.0152 49.0467 43.9141C48.8783 43.8215 48.5751 43.7246 48.1372 43.6236C47.7077 43.5225 47.0761 43.4004 46.2423 43.2572L46.5329 41.9561C47.4003 41.9982 48.554 42.0193 49.9941 42.0193H51.1057L50.9415 43.4846H50.3225Z" fill="black"/>
</svg>
