<svg width="51" height="51" viewBox="0 0 51 51" fill="none" xmlns="http://www.w3.org/2000/svg">
<g clip-path="url(#clip0_3783_41852)">
<rect x="0.910034" y="0.385254" width="50" height="50" rx="25" fill="black"/>
<path d="M24.0228 18.1893C28.3702 21.4159 31.4635 24.4784 33.3028 27.3768C35.1978 30.2206 36.1453 33.3104 36.1453 36.6464C36.1453 40.4745 35.1978 44.1385 33.3028 47.6385C31.4078 51.1385 28.5931 53.7635 24.8588 55.5135C22.6851 56.4979 20.4557 57.1542 18.1705 57.4823C15.9411 57.8104 13.4329 57.9745 10.6461 57.9745C10.3675 57.9745 10.0888 57.3456 9.81012 56.0878C9.53144 54.7753 9.39209 52.9432 9.39209 50.5917C9.39209 46.8729 9.72652 44.3026 10.3954 42.8807C11.0084 41.4589 11.6494 40.7479 12.3182 40.7479C15.7739 40.7479 18.5049 40.4745 20.5114 39.9276C22.5736 39.3807 23.6047 38.6971 23.6047 37.8768C23.6047 36.8378 22.5458 35.1971 20.4278 32.955C18.3098 30.7128 14.6313 27.8417 9.39209 24.3417L12.3182 9.57605L52.8661 -7.65051L55.3742 5.47448L24.0228 18.1893Z" fill="#242424"/>
<path d="M25.1188 21.6995C27.2714 23.3018 28.8031 24.8226 29.7138 26.262C30.6521 27.6742 31.1213 29.2086 31.1213 30.8652C31.1213 32.7662 30.6521 34.5858 29.7138 36.3239C28.7755 38.062 27.3818 39.3656 25.5328 40.2346C24.4565 40.7235 23.3526 41.0494 22.2211 41.2123C21.1172 41.3752 19.8753 41.4567 18.4955 41.4567C18.3575 41.4567 18.2195 41.1444 18.0815 40.5198C17.9435 39.868 17.8745 38.9582 17.8745 37.7904C17.8745 35.9437 18.0401 34.6673 18.3713 33.9612C18.6748 33.2551 18.9922 32.902 19.3234 32.902C21.0344 32.902 22.3867 32.7662 23.3802 32.4947C24.4013 32.2231 24.9118 31.8836 24.9118 31.4762C24.9118 30.9603 24.3875 30.1455 23.3388 29.0321C22.2901 27.9186 20.4687 26.4928 17.8745 24.7547L19.3234 17.4221L39.4005 8.86743L40.6424 15.3853L25.1188 21.6995Z" fill="#A72F3B"/>
</g>
<defs>
<clipPath id="clip0_3783_41852">
<rect x="0.910034" y="0.385254" width="50" height="50" rx="25" fill="white"/>
</clipPath>
</defs>
</svg>
